STARTFONT 2.1
FONT -Monotype-Rockwell-Regular-I-Normal--14-140-72-72-P-73-iso8859-1
SIZE 14 72 72
FONTBOUNDINGBOX 17 17 -1 -3

STARTPROPERTIES 22
FOUNDRY "Monotype"
FAMILY_NAME "Rockwell"
WEIGHT_NAME "Regular"
SLANT "I"
SETWIDTH_NAME "Normal"
ADD_STYLE_NAME ""
PIXEL_SIZE 14
POINT_SIZE 140
RESOLUTION_X 72
RESOLUTION_Y 72
SPACING "P"
AVERAGE_WIDTH 73
CHARSET_REGISTRY "iso8859"
CHARSET_ENCODING "1"
COPYRIGHT "Copyright (c) 1996 Monotype Typography Ltd."
CAP_HEIGHT 11
X_HEIGHT 8
WEIGHT 10
QUAD_WIDTH 9
DEFAULT_CHAR 32
FONT_DESCENT 3
FONT_ASCENT 14
ENDPROPERTIES

CHARS 191

STARTCHAR space
ENCODING 32
SWIDTH 250 0
DWIDTH 4 0
BBX 0 0 0 0
BITMAP
ENDCHAR

STARTCHAR exclam
ENCODING 33
SWIDTH 281 0
DWIDTH 4 0
BBX 3 10 1 0
BITMAP
20
20
20
40
40
40
40
00
80
80
ENDCHAR

STARTCHAR quotedbl
ENCODING 34
SWIDTH 417 0
DWIDTH 6 0
BBX 4 4 2 6
BITMAP
90
90
90
90
ENDCHAR

STARTCHAR numbersign
ENCODING 35
SWIDTH 668 0
DWIDTH 10 0
BBX 9 11 1 0
BITMAP
1100
1100
1100
FF80
2200
2200
2200
FF80
4400
4400
4400
ENDCHAR

STARTCHAR dollar
ENCODING 36
SWIDTH 479 0
DWIDTH 7 0
BBX 7 13 0 -2
BITMAP
04
1E
2A
28
28
18
14
14
24
A4
78
20
20
ENDCHAR

STARTCHAR percent
ENCODING 37
SWIDTH 1000 0
DWIDTH 15 0
BBX 12 10 2 0
BITMAP
3020
4840
8880
9100
6200
0460
0890
1110
2120
40C0
ENDCHAR

STARTCHAR ampersand
ENCODING 38
SWIDTH 625 0
DWIDTH 9 0
BBX 8 10 1 0
BITMAP
18
24
24
18
30
57
8A
84
8C
73
ENDCHAR

STARTCHAR quoteright
ENCODING 39
SWIDTH 281 0
DWIDTH 4 0
BBX 3 3 1 7
BITMAP
60
20
C0
ENDCHAR

STARTCHAR parenleft
ENCODING 40
SWIDTH 375 0
DWIDTH 6 0
BBX 5 13 2 -3
BITMAP
08
10
20
40
40
80
80
80
80
80
40
40
20
ENDCHAR

STARTCHAR parenright
ENCODING 41
SWIDTH 375 0
DWIDTH 6 0
BBX 5 13 0 -3
BITMAP
20
10
10
08
08
08
08
08
10
10
20
40
80
ENDCHAR

STARTCHAR asterisk
ENCODING 42
SWIDTH 521 0
DWIDTH 8 0
BBX 5 5 2 5
BITMAP
20
A8
70
60
90
ENDCHAR

STARTCHAR plus
ENCODING 43
SWIDTH 667 0
DWIDTH 10 0
BBX 7 7 2 1
BITMAP
10
10
10
FE
10
10
10
ENDCHAR

STARTCHAR comma
ENCODING 44
SWIDTH 281 0
DWIDTH 4 0
BBX 2 4 0 -2
BITMAP
40
40
40
80
ENDCHAR

STARTCHAR minus
ENCODING 45
SWIDTH 667 0
DWIDTH 10 0
BBX 8 1 2 4
BITMAP
FF
ENDCHAR

STARTCHAR period
ENCODING 46
SWIDTH 281 0
DWIDTH 4 0
BBX 1 2 1 0
BITMAP
80
80
ENDCHAR

STARTCHAR slash
ENCODING 47
SWIDTH 438 0
DWIDTH 7 0
BBX 5 10 2 0
BITMAP
08
08
10
10
20
20
40
40
80
80
ENDCHAR

STARTCHAR zero
ENCODING 48
SWIDTH 531 0
DWIDTH 8 0
BBX 7 10 1 0
BITMAP
1C
22
42
42
82
82
84
84
88
70
ENDCHAR

STARTCHAR one
ENCODING 49
SWIDTH 531 0
DWIDTH 8 0
BBX 4 10 2 0
BITMAP
30
10
10
20
20
20
20
40
40
E0
ENDCHAR

STARTCHAR two
ENCODING 50
SWIDTH 531 0
DWIDTH 8 0
BBX 7 10 1 0
BITMAP
1C
22
22
04
08
10
10
24
44
FC
ENDCHAR

STARTCHAR three
ENCODING 51
SWIDTH 531 0
DWIDTH 8 0
BBX 7 10 1 0
BITMAP
1C
22
42
04
18
04
04
84
88
70
ENDCHAR

STARTCHAR four
ENCODING 52
SWIDTH 531 0
DWIDTH 8 0
BBX 7 10 1 0
BITMAP
06
0C
14
28
48
88
FC
10
10
38
ENDCHAR

STARTCHAR five
ENCODING 53
SWIDTH 531 0
DWIDTH 8 0
BBX 7 10 1 0
BITMAP
3E
22
40
78
44
04
04
84
88
70
ENDCHAR

STARTCHAR six
ENCODING 54
SWIDTH 531 0
DWIDTH 8 0
BBX 7 10 1 0
BITMAP
1C
22
42
40
B8
C4
84
84
88
70
ENDCHAR

STARTCHAR seven
ENCODING 55
SWIDTH 531 0
DWIDTH 8 0
BBX 6 10 2 0
BITMAP
FC
84
08
10
10
20
20
40
40
E0
ENDCHAR

STARTCHAR eight
ENCODING 56
SWIDTH 531 0
DWIDTH 8 0
BBX 7 10 1 0
BITMAP
3C
42
42
44
38
44
84
84
88
70
ENDCHAR

STARTCHAR nine
ENCODING 57
SWIDTH 531 0
DWIDTH 8 0
BBX 7 10 1 0
BITMAP
1C
22
42
42
46
3A
04
84
88
70
ENDCHAR

STARTCHAR colon
ENCODING 58
SWIDTH 281 0
DWIDTH 4 0
BBX 2 7 1 0
BITMAP
40
40
00
00
00
80
80
ENDCHAR

STARTCHAR semicolon
ENCODING 59
SWIDTH 281 0
DWIDTH 4 0
BBX 3 9 0 -2
BITMAP
20
20
00
00
00
40
40
40
80
ENDCHAR

STARTCHAR less
ENCODING 60
SWIDTH 667 0
DWIDTH 10 0
BBX 8 7 1 1
BITMAP
03
0C
30
C0
30
0C
03
ENDCHAR

STARTCHAR equal
ENCODING 61
SWIDTH 667 0
DWIDTH 10 0
BBX 8 4 2 3
BITMAP
FF
00
00
FF
ENDCHAR

STARTCHAR greater
ENCODING 62
SWIDTH 667 0
DWIDTH 10 0
BBX 8 7 1 1
BITMAP
C0
30
0C
03
0C
30
C0
ENDCHAR

STARTCHAR question
ENCODING 63
SWIDTH 458 0
DWIDTH 7 0
BBX 6 10 1 0
BITMAP
38
44
44
08
30
40
40
00
80
80
ENDCHAR

STARTCHAR at
ENCODING 64
SWIDTH 1010 0
DWIDTH 15 0
BBX 13 14 2 -3
BITMAP
07C0
1820
2010
4348
44C8
8848
8888
9090
9090
91A0
4EC0
4008
3030
0FC0
ENDCHAR

STARTCHAR A
ENCODING 65
SWIDTH 646 0
DWIDTH 10 0
BBX 9 10 0 0
BITMAP
0F80
0500
0500
0900
0900
1F00
2100
2100
4100
E380
ENDCHAR

STARTCHAR B
ENCODING 66
SWIDTH 563 0
DWIDTH 8 0
BBX 8 10 0 0
BITMAP
3E
11
11
22
3E
21
21
41
42
FC
ENDCHAR

STARTCHAR C
ENCODING 67
SWIDTH 719 0
DWIDTH 11 0
BBX 10 10 1 0
BITMAP
1F40
2080
4080
4000
8000
8000
8000
8080
4100
3E00
ENDCHAR

STARTCHAR D
ENCODING 68
SWIDTH 708 0
DWIDTH 11 0
BBX 11 10 0 0
BITMAP
3F80
1040
1020
2020
2020
2020
2040
4040
4180
FE00
ENDCHAR

STARTCHAR E
ENCODING 69
SWIDTH 573 0
DWIDTH 9 0
BBX 9 10 0 0
BITMAP
3F80
1080
1080
2000
3E00
2000
2000
4100
4200
FE00
ENDCHAR

STARTCHAR F
ENCODING 70
SWIDTH 521 0
DWIDTH 8 0
BBX 9 10 0 0
BITMAP
3F80
1080
1080
2000
3E00
2000
2000
4000
4000
E000
ENDCHAR

STARTCHAR G
ENCODING 71
SWIDTH 781 0
DWIDTH 12 0
BBX 11 10 2 0
BITMAP
1FA0
2040
4040
4000
8000
81C0
8040
8080
4100
3E00
ENDCHAR

STARTCHAR H
ENCODING 72
SWIDTH 677 0
DWIDTH 10 0
BBX 11 10 0 0
BITMAP
38E0
1040
1040
2080
3F80
2080
2080
4100
4100
E380
ENDCHAR

STARTCHAR I
ENCODING 73
SWIDTH 292 0
DWIDTH 4 0
BBX 5 10 0 0
BITMAP
38
10
10
20
20
20
20
40
40
E0
ENDCHAR

STARTCHAR J
ENCODING 74
SWIDTH 292 0
DWIDTH 4 0
BBX 6 13 -1 -3
BITMAP
1C
08
08
10
10
10
10
20
20
20
20
20
C0
ENDCHAR

STARTCHAR K
ENCODING 75
SWIDTH 594 0
DWIDTH 9 0
BBX 10 10 0 0
BITMAP
3BC0
1100
1200
2400
3800
2800
2400
4400
4200
E780
ENDCHAR

STARTCHAR L
ENCODING 76
SWIDTH 490 0
DWIDTH 7 0
BBX 7 10 0 0
BITMAP
38
10
10
20
20
20
22
42
44
FC
ENDCHAR

STARTCHAR M
ENCODING 77
SWIDTH 833 0
DWIDTH 12 0
BBX 14 10 0 0
BITMAP
381C
1818
2828
2850
2850
2490
2510
4520
4620
E4F0
ENDCHAR

STARTCHAR N
ENCODING 78
SWIDTH 698 0
DWIDTH 10 0
BBX 11 10 0 0
BITMAP
38E0
1840
1440
2480
2480
2280
2280
4100
4100
E100
ENDCHAR

STARTCHAR O
ENCODING 79
SWIDTH 781 0
DWIDTH 12 0
BBX 10 10 2 0
BITMAP
1F00
2080
4040
4040
8040
8040
8080
8080
4100
3E00
ENDCHAR

STARTCHAR P
ENCODING 80
SWIDTH 542 0
DWIDTH 8 0
BBX 8 10 0 0
BITMAP
3E
11
11
21
22
3C
20
40
40
E0
ENDCHAR

STARTCHAR Q
ENCODING 81
SWIDTH 781 0
DWIDTH 12 0
BBX 10 12 2 -2
BITMAP
1F00
2080
4040
4040
8040
8040
8080
8080
4100
3E00
4C00
0300
ENDCHAR

STARTCHAR R
ENCODING 82
SWIDTH 583 0
DWIDTH 9 0
BBX 9 10 0 0
BITMAP
3F00
1080
1080
2100
3E00
2400
2400
4200
4200
E380
ENDCHAR

STARTCHAR S
ENCODING 83
SWIDTH 521 0
DWIDTH 8 0
BBX 9 10 0 0
BITMAP
0E80
1100
2100
2000
1C00
0200
0200
4200
4400
B800
ENDCHAR

STARTCHAR T
ENCODING 84
SWIDTH 583 0
DWIDTH 9 0
BBX 9 10 1 0
BITMAP
7F80
4880
8900
9100
1000
1000
1000
2000
2000
7000
ENDCHAR

STARTCHAR U
ENCODING 85
SWIDTH 635 0
DWIDTH 10 0
BBX 10 10 1 0
BITMAP
71C0
2080
2080
4100
4100
4100
8200
8200
8400
7800
ENDCHAR

STARTCHAR V
ENCODING 86
SWIDTH 677 0
DWIDTH 10 0
BBX 9 10 2 0
BITMAP
E380
4100
4200
4400
4400
4800
5000
5000
6000
4000
ENDCHAR

STARTCHAR W
ENCODING 87
SWIDTH 990 0
DWIDTH 15 0
BBX 14 10 2 0
BITMAP
E79C
4308
4510
4510
4920
4920
5140
5140
6180
4100
ENDCHAR

STARTCHAR X
ENCODING 88
SWIDTH 635 0
DWIDTH 10 0
BBX 12 10 0 0
BITMAP
1CF0
0840
0480
0500
0200
0600
0A00
1100
2100
F380
ENDCHAR

STARTCHAR Y
ENCODING 89
SWIDTH 573 0
DWIDTH 9 0
BBX 9 10 1 0
BITMAP
E380
4100
2200
2400
1800
1000
1000
2000
2000
7000
ENDCHAR

STARTCHAR Z
ENCODING 90
SWIDTH 563 0
DWIDTH 8 0
BBX 9 10 0 0
BITMAP
0F80
1080
2100
0200
0400
0800
1000
2100
4200
FE00
ENDCHAR

STARTCHAR bracketleft
ENCODING 91
SWIDTH 313 0
DWIDTH 5 0
BBX 6 13 0 -3
BITMAP
1C
10
10
20
20
20
40
40
40
40
80
80
E0
ENDCHAR

STARTCHAR backslash
ENCODING 92
SWIDTH 438 0
DWIDTH 7 0
BBX 5 10 1 0
BITMAP
80
80
40
40
20
20
10
10
08
08
ENDCHAR

STARTCHAR bracketright
ENCODING 93
SWIDTH 313 0
DWIDTH 5 0
BBX 6 13 -1 -3
BITMAP
0C
04
04
08
08
08
10
10
10
10
20
20
E0
ENDCHAR

STARTCHAR asciicircum
ENCODING 94
SWIDTH 427 0
DWIDTH 6 0
BBX 7 6 0 4
BITMAP
10
28
28
44
44
82
ENDCHAR

STARTCHAR underscore
ENCODING 95
SWIDTH 500 0
DWIDTH 8 0
BBX 8 1 0 -2
BITMAP
FF
ENDCHAR

STARTCHAR quoteleft
ENCODING 96
SWIDTH 281 0
DWIDTH 4 0
BBX 3 3 2 7
BITMAP
60
80
C0
ENDCHAR

STARTCHAR a
ENCODING 97
SWIDTH 531 0
DWIDTH 8 0
BBX 7 7 1 0
BITMAP
3C
42
02
7C
84
8C
76
ENDCHAR

STARTCHAR b
ENCODING 98
SWIDTH 615 0
DWIDTH 9 0
BBX 8 10 1 0
BITMAP
30
10
10
2E
31
21
21
42
62
DC
ENDCHAR

STARTCHAR c
ENCODING 99
SWIDTH 500 0
DWIDTH 8 0
BBX 8 7 1 0
BITMAP
3D
42
42
80
80
84
78
ENDCHAR

STARTCHAR d
ENCODING 100
SWIDTH 604 0
DWIDTH 9 0
BBX 8 10 1 0
BITMAP
03
01
01
3A
46
42
82
84
8C
76
ENDCHAR

STARTCHAR e
ENCODING 101
SWIDTH 552 0
DWIDTH 8 0
BBX 7 7 1 0
BITMAP
3C
42
42
FE
80
84
78
ENDCHAR

STARTCHAR f
ENCODING 102
SWIDTH 281 0
DWIDTH 4 0
BBX 6 10 0 0
BITMAP
0C
10
10
78
20
20
20
40
40
E0
ENDCHAR

STARTCHAR g
ENCODING 103
SWIDTH 604 0
DWIDTH 9 0
BBX 9 10 0 -3
BITMAP
1D80
2300
2100
4100
4200
4600
3A00
0200
8400
7800
ENDCHAR

STARTCHAR h
ENCODING 104
SWIDTH 552 0
DWIDTH 8 0
BBX 8 10 0 0
BITMAP
30
10
10
2E
31
21
21
42
42
E3
ENDCHAR

STARTCHAR i
ENCODING 105
SWIDTH 281 0
DWIDTH 4 0
BBX 4 10 0 0
BITMAP
10
10
00
60
20
20
20
40
40
E0
ENDCHAR

STARTCHAR j
ENCODING 106
SWIDTH 281 0
DWIDTH 4 0
BBX 5 13 -1 -3
BITMAP
08
08
00
30
10
10
10
20
20
20
20
40
80
ENDCHAR

STARTCHAR k
ENCODING 107
SWIDTH 521 0
DWIDTH 8 0
BBX 8 10 0 0
BITMAP
30
10
10
27
24
28
30
48
44
E7
ENDCHAR

STARTCHAR l
ENCODING 108
SWIDTH 281 0
DWIDTH 4 0
BBX 4 10 0 0
BITMAP
30
10
10
20
20
20
20
40
40
E0
ENDCHAR

STARTCHAR m
ENCODING 109
SWIDTH 844 0
DWIDTH 13 0
BBX 11 7 1 0
BITMAP
6EC0
3320
2220
2220
4440
4440
E660
ENDCHAR

STARTCHAR n
ENCODING 110
SWIDTH 552 0
DWIDTH 8 0
BBX 8 7 0 0
BITMAP
6E
31
21
21
42
42
E3
ENDCHAR

STARTCHAR o
ENCODING 111
SWIDTH 563 0
DWIDTH 8 0
BBX 7 7 1 0
BITMAP
3C
42
42
82
84
84
78
ENDCHAR

STARTCHAR p
ENCODING 112
SWIDTH 604 0
DWIDTH 9 0
BBX 10 10 -1 -3
BITMAP
3780
1840
1040
1040
2080
3080
2F00
4000
4000
E000
ENDCHAR

STARTCHAR q
ENCODING 113
SWIDTH 604 0
DWIDTH 9 0
BBX 8 10 1 -3
BITMAP
3B
46
42
82
84
8C
74
08
08
1C
ENDCHAR

STARTCHAR r
ENCODING 114
SWIDTH 396 0
DWIDTH 6 0
BBX 6 7 0 0
BITMAP
6C
30
20
20
40
40
E0
ENDCHAR

STARTCHAR s
ENCODING 115
SWIDTH 427 0
DWIDTH 6 0
BBX 5 7 1 0
BITMAP
38
48
40
20
10
90
E0
ENDCHAR

STARTCHAR t
ENCODING 116
SWIDTH 292 0
DWIDTH 4 0
BBX 4 9 1 0
BITMAP
20
20
F0
40
40
40
80
80
60
ENDCHAR

STARTCHAR u
ENCODING 117
SWIDTH 552 0
DWIDTH 8 0
BBX 7 7 1 0
BITMAP
C6
42
42
84
84
8C
76
ENDCHAR

STARTCHAR v
ENCODING 118
SWIDTH 479 0
DWIDTH 7 0
BBX 7 7 1 0
BITMAP
EE
44
48
48
50
60
40
ENDCHAR

STARTCHAR w
ENCODING 119
SWIDTH 740 0
DWIDTH 11 0
BBX 11 7 1 0
BITMAP
EEE0
4440
4C80
5480
5500
6600
4400
ENDCHAR

STARTCHAR x
ENCODING 120
SWIDTH 510 0
DWIDTH 8 0
BBX 9 7 0 0
BITMAP
7380
2200
1400
1800
2800
4400
EE00
ENDCHAR

STARTCHAR y
ENCODING 121
SWIDTH 510 0
DWIDTH 8 0
BBX 9 10 -1 -3
BITMAP
3B80
1100
1200
1200
1400
1800
1000
1000
2000
E000
ENDCHAR

STARTCHAR z
ENCODING 122
SWIDTH 417 0
DWIDTH 6 0
BBX 6 7 1 0
BITMAP
7C
88
10
20
48
88
F0
ENDCHAR

STARTCHAR braceleft
ENCODING 123
SWIDTH 333 0
DWIDTH 5 0
BBX 5 13 1 -3
BITMAP
18
20
20
20
20
20
C0
20
20
20
20
20
18
ENDCHAR

STARTCHAR bar
ENCODING 124
SWIDTH 527 0
DWIDTH 8 0
BBX 1 13 4 -3
BITMAP
80
80
80
80
80
80
80
80
80
80
80
80
80
ENDCHAR

STARTCHAR braceright
ENCODING 125
SWIDTH 333 0
DWIDTH 5 0
BBX 5 13 1 -3
BITMAP
C0
20
20
20
20
20
18
20
20
20
20
20
C0
ENDCHAR

STARTCHAR asciitilde
ENCODING 126
SWIDTH 583 0
DWIDTH 9 0
BBX 8 2 1 4
BITMAP
71
8E
ENDCHAR

STARTCHAR space
ENCODING 160
SWIDTH 250 0
DWIDTH 4 0
BBX 0 0 0 0
BITMAP
ENDCHAR

STARTCHAR exclamdown
ENCODING 161
SWIDTH 281 0
DWIDTH 4 0
BBX 3 10 1 -3
BITMAP
20
20
00
40
40
40
40
80
80
80
ENDCHAR

STARTCHAR cent
ENCODING 162
SWIDTH 500 0
DWIDTH 8 0
BBX 7 13 1 -3
BITMAP
04
04
08
3E
4A
52
90
A0
A4
78
40
40
80
ENDCHAR

STARTCHAR sterling
ENCODING 163
SWIDTH 458 0
DWIDTH 7 0
BBX 7 10 1 0
BITMAP
0C
12
20
20
78
20
20
62
A4
58
ENDCHAR

STARTCHAR currency
ENCODING 164
SWIDTH 667 0
DWIDTH 10 0
BBX 7 7 2 2
BITMAP
BA
44
82
82
82
44
BA
ENDCHAR

STARTCHAR yen
ENCODING 165
SWIDTH 573 0
DWIDTH 9 0
BBX 10 10 0 0
BITMAP
71C0
2080
1100
FF80
0C00
0800
FF80
1000
1000
3800
ENDCHAR

STARTCHAR brokenbar
ENCODING 166
SWIDTH 527 0
DWIDTH 8 0
BBX 1 13 4 -3
BITMAP
80
80
80
80
80
00
00
00
80
80
80
80
80
ENDCHAR

STARTCHAR section
ENCODING 167
SWIDTH 448 0
DWIDTH 7 0
BBX 8 13 0 -3
BITMAP
0E
11
11
30
48
44
42
22
12
0C
88
88
70
ENDCHAR

STARTCHAR dieresis
ENCODING 168
SWIDTH 333 0
DWIDTH 5 0
BBX 4 1 2 9
BITMAP
90
ENDCHAR

STARTCHAR copyright
ENCODING 169
SWIDTH 740 0
DWIDTH 11 0
BBX 10 10 1 0
BITMAP
3F00
4080
8E40
9240
9040
9040
9240
8E40
4080
3F00
ENDCHAR

STARTCHAR ordfeminine
ENCODING 170
SWIDTH 344 0
DWIDTH 5 0
BBX 4 5 1 5
BITMAP
70
10
60
A0
50
ENDCHAR

STARTCHAR guillemotleft
ENCODING 171
SWIDTH 458 0
DWIDTH 7 0
BBX 7 7 0 0
BITMAP
12
24
48
90
90
48
24
ENDCHAR

STARTCHAR logicalnot
ENCODING 172
SWIDTH 667 0
DWIDTH 10 0
BBX 7 4 2 3
BITMAP
FE
02
02
02
ENDCHAR

STARTCHAR hyphen
ENCODING 173
SWIDTH 385 0
DWIDTH 6 0
BBX 4 1 1 3
BITMAP
F0
ENDCHAR

STARTCHAR registered
ENCODING 174
SWIDTH 740 0
DWIDTH 11 0
BBX 10 10 1 0
BITMAP
3F00
4080
BC40
9240
9240
9C40
9240
B340
4080
3F00
ENDCHAR

STARTCHAR macron
ENCODING 175
SWIDTH 333 0
DWIDTH 5 0
BBX 4 1 2 9
BITMAP
F0
ENDCHAR

STARTCHAR degree
ENCODING 176
SWIDTH 396 0
DWIDTH 6 0
BBX 5 5 2 5
BITMAP
70
88
88
88
70
ENDCHAR

STARTCHAR plusminus
ENCODING 177
SWIDTH 667 0
DWIDTH 10 0
BBX 7 10 2 0
BITMAP
10
10
10
FE
10
10
10
00
00
FE
ENDCHAR

STARTCHAR twosuperior
ENCODING 178
SWIDTH 323 0
DWIDTH 5 0
BBX 4 5 2 5
BITMAP
20
50
20
40
E0
ENDCHAR

STARTCHAR threesuperior
ENCODING 179
SWIDTH 323 0
DWIDTH 5 0
BBX 4 5 2 5
BITMAP
20
50
20
90
60
ENDCHAR

STARTCHAR acute
ENCODING 180
SWIDTH 333 0
DWIDTH 5 0
BBX 2 2 2 8
BITMAP
40
80
ENDCHAR

STARTCHAR mu
ENCODING 181
SWIDTH 552 0
DWIDTH 8 0
BBX 8 10 0 -3
BITMAP
21
21
21
42
42
66
5B
80
80
80
ENDCHAR

STARTCHAR paragraph
ENCODING 182
SWIDTH 542 0
DWIDTH 8 0
BBX 8 13 0 -3
BITMAP
3F
72
F2
F2
F2
72
12
12
12
12
12
12
12
ENDCHAR

STARTCHAR periodcentered
ENCODING 183
SWIDTH 292 0
DWIDTH 4 0
BBX 2 1 2 4
BITMAP
C0
ENDCHAR

STARTCHAR cedilla
ENCODING 184
SWIDTH 333 0
DWIDTH 5 0
BBX 3 3 0 -3
BITMAP
40
20
C0
ENDCHAR

STARTCHAR onesuperior
ENCODING 185
SWIDTH 323 0
DWIDTH 5 0
BBX 3 5 2 5
BITMAP
60
20
40
40
E0
ENDCHAR

STARTCHAR ordmasculine
ENCODING 186
SWIDTH 365 0
DWIDTH 5 0
BBX 5 5 1 5
BITMAP
30
48
88
90
60
ENDCHAR

STARTCHAR guillemotright
ENCODING 187
SWIDTH 458 0
DWIDTH 7 0
BBX 7 7 0 0
BITMAP
48
24
12
12
24
48
90
ENDCHAR

STARTCHAR onequarter
ENCODING 188
SWIDTH 1000 0
DWIDTH 15 0
BBX 11 10 2 0
BITMAP
6020
2040
4080
4100
E600
0820
10C0
2140
43E0
8080
ENDCHAR

STARTCHAR onehalf
ENCODING 189
SWIDTH 1000 0
DWIDTH 15 0
BBX 11 10 2 0
BITMAP
3020
1040
2080
2100
7200
0440
18A0
2040
4080
81C0
ENDCHAR

STARTCHAR threequarters
ENCODING 190
SWIDTH 1000 0
DWIDTH 15 0
BBX 11 10 2 0
BITMAP
2020
5040
2080
9100
6200
0420
08C0
1140
23E0
4080
ENDCHAR

STARTCHAR questiondown
ENCODING 191
SWIDTH 458 0
DWIDTH 7 0
BBX 6 10 0 -3
BITMAP
04
04
00
08
08
30
40
88
88
70
ENDCHAR

STARTCHAR Agrave
ENCODING 192
SWIDTH 646 0
DWIDTH 10 0
BBX 9 14 0 0
BITMAP
0400
0200
0100
0000
0F80
0500
0500
0900
0900
1F00
2100
2100
4100
E380
ENDCHAR

STARTCHAR Aacute
ENCODING 193
SWIDTH 646 0
DWIDTH 10 0
BBX 9 14 0 0
BITMAP
0080
0100
0200
0000
0F80
0500
0500
0900
0900
1F00
2100
2100
4100
E380
ENDCHAR

STARTCHAR Acircumflex
ENCODING 194
SWIDTH 646 0
DWIDTH 10 0
BBX 9 14 0 0
BITMAP
0100
0280
0480
0000
0F80
0500
0500
0900
0900
1F00
2100
2100
4100
E380
ENDCHAR

STARTCHAR Atilde
ENCODING 195
SWIDTH 646 0
DWIDTH 10 0
BBX 10 13 0 0
BITMAP
0640
0980
0000
0F80
0500
0500
0900
0900
1F00
2100
2100
4100
E380
ENDCHAR

STARTCHAR Adieresis
ENCODING 196
SWIDTH 646 0
DWIDTH 10 0
BBX 9 13 0 0
BITMAP
0480
0480
0000
0F80
0500
0500
0900
0900
1F00
2100
2100
4100
E380
ENDCHAR

STARTCHAR Aring
ENCODING 197
SWIDTH 646 0
DWIDTH 10 0
BBX 9 14 0 0
BITMAP
0200
0500
0200
0000
0F80
0500
0500
0900
0900
1F00
2100
2100
4100
E380
ENDCHAR

STARTCHAR AE
ENCODING 198
SWIDTH 969 0
DWIDTH 15 0
BBX 15 10 0 0
BITMAP
07FE
0242
0442
0480
0FF8
1080
2080
2104
4108
E3F8
ENDCHAR

STARTCHAR Ccedilla
ENCODING 199
SWIDTH 719 0
DWIDTH 11 0
BBX 10 13 1 -3
BITMAP
1F40
2080
4080
4000
8000
8000
8000
8080
4100
3E00
0800
0400
3800
ENDCHAR

STARTCHAR Egrave
ENCODING 200
SWIDTH 573 0
DWIDTH 9 0
BBX 9 14 0 0
BITMAP
0800
0400
0200
0000
3F80
1080
1080
2000
3E00
2000
2000
4100
4200
FE00
ENDCHAR

STARTCHAR Eacute
ENCODING 201
SWIDTH 573 0
DWIDTH 9 0
BBX 9 14 0 0
BITMAP
0100
0200
0400
0000
3F80
1080
1080
2000
3E00
2000
2000
4100
4200
FE00
ENDCHAR

STARTCHAR Ecircumflex
ENCODING 202
SWIDTH 573 0
DWIDTH 9 0
BBX 9 14 0 0
BITMAP
0200
0500
0900
0000
3F80
1080
1080
2000
3E00
2000
2000
4100
4200
FE00
ENDCHAR

STARTCHAR Edieresis
ENCODING 203
SWIDTH 573 0
DWIDTH 9 0
BBX 9 13 0 0
BITMAP
0900
0900
0000
3F80
1080
1080
2000
3E00
2000
2000
4100
4200
FE00
ENDCHAR

STARTCHAR Igrave
ENCODING 204
SWIDTH 292 0
DWIDTH 4 0
BBX 5 14 0 0
BITMAP
20
10
08
00
38
10
10
20
20
20
20
40
40
E0
ENDCHAR

STARTCHAR Iacute
ENCODING 205
SWIDTH 292 0
DWIDTH 4 0
BBX 6 14 0 0
BITMAP
04
08
10
00
38
10
10
20
20
20
20
40
40
E0
ENDCHAR

STARTCHAR Icircumflex
ENCODING 206
SWIDTH 292 0
DWIDTH 4 0
BBX 6 14 0 0
BITMAP
08
14
24
00
38
10
10
20
20
20
20
40
40
E0
ENDCHAR

STARTCHAR Idieresis
ENCODING 207
SWIDTH 292 0
DWIDTH 4 0
BBX 6 13 0 0
BITMAP
14
14
00
38
10
10
20
20
20
20
40
40
E0
ENDCHAR

STARTCHAR Eth
ENCODING 208
SWIDTH 708 0
DWIDTH 11 0
BBX 11 10 0 0
BITMAP
3F80
1040
1020
2020
7C20
2020
2040
4040
4180
FE00
ENDCHAR

STARTCHAR Ntilde
ENCODING 209
SWIDTH 698 0
DWIDTH 10 0
BBX 11 13 0 0
BITMAP
0640
0980
0000
38E0
1840
1440
2480
2480
2280
2280
4100
4100
E100
ENDCHAR

STARTCHAR Ograve
ENCODING 210
SWIDTH 781 0
DWIDTH 12 0
BBX 10 14 2 0
BITMAP
0800
0400
0200
0000
1F00
2080
4040
4040
8040
8040
8080
8080
4100
3E00
ENDCHAR

STARTCHAR Oacute
ENCODING 211
SWIDTH 781 0
DWIDTH 12 0
BBX 10 14 2 0
BITMAP
0100
0200
0400
0000
1F00
2080
4040
4040
8040
8040
8080
8080
4100
3E00
ENDCHAR

STARTCHAR Ocircumflex
ENCODING 212
SWIDTH 781 0
DWIDTH 12 0
BBX 10 14 2 0
BITMAP
0200
0500
0900
0000
1F00
2080
4040
4040
8040
8040
8080
8080
4100
3E00
ENDCHAR

STARTCHAR Otilde
ENCODING 213
SWIDTH 781 0
DWIDTH 12 0
BBX 10 13 2 0
BITMAP
0640
0980
0000
1F00
2080
4040
4040
8040
8040
8080
8080
4100
3E00
ENDCHAR

STARTCHAR Odieresis
ENCODING 214
SWIDTH 781 0
DWIDTH 12 0
BBX 10 13 2 0
BITMAP
0900
0900
0000
1F00
2080
4040
4040
8040
8040
8080
8080
4100
3E00
ENDCHAR

STARTCHAR multiply
ENCODING 215
SWIDTH 668 0
DWIDTH 10 0
BBX 7 7 2 2
BITMAP
82
44
28
10
28
44
82
ENDCHAR

STARTCHAR Oslash
ENCODING 216
SWIDTH 781 0
DWIDTH 12 0
BBX 12 12 1 -1
BITMAP
0010
0FA0
1040
20A0
2120
4220
4420
4840
5040
2080
5F00
8000
ENDCHAR

STARTCHAR Ugrave
ENCODING 217
SWIDTH 635 0
DWIDTH 10 0
BBX 10 14 1 0
BITMAP
0800
0400
0200
0000
71C0
2080
2080
4100
4100
4100
8200
8200
8400
7800
ENDCHAR

STARTCHAR Uacute
ENCODING 218
SWIDTH 635 0
DWIDTH 10 0
BBX 10 14 1 0
BITMAP
0200
0400
0800
0000
71C0
2080
2080
4100
4100
4100
8200
8200
8400
7800
ENDCHAR

STARTCHAR Ucircumflex
ENCODING 219
SWIDTH 635 0
DWIDTH 10 0
BBX 10 14 1 0
BITMAP
0200
0500
0900
0000
71C0
2080
2080
4100
4100
4100
8200
8200
8400
7800
ENDCHAR

STARTCHAR Udieresis
ENCODING 220
SWIDTH 635 0
DWIDTH 10 0
BBX 10 13 1 0
BITMAP
0900
0900
0000
71C0
2080
2080
4100
4100
4100
8200
8200
8400
7800
ENDCHAR

STARTCHAR Yacute
ENCODING 221
SWIDTH 573 0
DWIDTH 9 0
BBX 9 14 1 0
BITMAP
0200
0400
0800
0000
E380
4100
2200
2400
1800
1000
1000
2000
2000
7000
ENDCHAR

STARTCHAR Thorn
ENCODING 222
SWIDTH 542 0
DWIDTH 8 0
BBX 8 10 0 0
BITMAP
38
10
1E
21
21
21
22
7C
40
E0
ENDCHAR

STARTCHAR germandbls
ENCODING 223
SWIDTH 615 0
DWIDTH 9 0
BBX 8 10 0 0
BITMAP
06
09
11
11
22
21
21
41
52
CC
ENDCHAR

STARTCHAR agrave
ENCODING 224
SWIDTH 531 0
DWIDTH 8 0
BBX 7 11 1 0
BITMAP
20
10
08
00
3C
42
02
7C
84
8C
76
ENDCHAR

STARTCHAR aacute
ENCODING 225
SWIDTH 531 0
DWIDTH 8 0
BBX 7 11 1 0
BITMAP
04
08
10
00
3C
42
02
7C
84
8C
76
ENDCHAR

STARTCHAR acircumflex
ENCODING 226
SWIDTH 531 0
DWIDTH 8 0
BBX 7 11 1 0
BITMAP
08
14
24
00
3C
42
02
7C
84
8C
76
ENDCHAR

STARTCHAR atilde
ENCODING 227
SWIDTH 531 0
DWIDTH 8 0
BBX 8 10 1 0
BITMAP
19
26
00
3C
42
02
7C
84
8C
76
ENDCHAR

STARTCHAR adieresis
ENCODING 228
SWIDTH 531 0
DWIDTH 8 0
BBX 7 10 1 0
BITMAP
14
14
00
3C
42
02
7C
84
8C
76
ENDCHAR

STARTCHAR aring
ENCODING 229
SWIDTH 531 0
DWIDTH 8 0
BBX 7 11 1 0
BITMAP
08
14
08
00
3C
42
02
7C
84
8C
76
ENDCHAR

STARTCHAR ae
ENCODING 230
SWIDTH 865 0
DWIDTH 13 0
BBX 12 7 1 0
BITMAP
3DE0
4610
0410
7BF0
8400
8C20
73C0
ENDCHAR

STARTCHAR ccedilla
ENCODING 231
SWIDTH 500 0
DWIDTH 8 0
BBX 8 10 1 -3
BITMAP
3D
42
42
80
80
84
78
20
10
60
ENDCHAR

STARTCHAR egrave
ENCODING 232
SWIDTH 552 0
DWIDTH 8 0
BBX 7 11 1 0
BITMAP
20
10
08
00
3C
42
42
FE
80
84
78
ENDCHAR

STARTCHAR eacute
ENCODING 233
SWIDTH 552 0
DWIDTH 8 0
BBX 7 11 1 0
BITMAP
04
08
10
00
3C
42
42
FE
80
84
78
ENDCHAR

STARTCHAR ecircumflex
ENCODING 234
SWIDTH 552 0
DWIDTH 8 0
BBX 7 11 1 0
BITMAP
08
14
24
00
3C
42
42
FE
80
84
78
ENDCHAR

STARTCHAR edieresis
ENCODING 235
SWIDTH 552 0
DWIDTH 8 0
BBX 7 10 1 0
BITMAP
12
12
00
3C
42
42
FE
80
84
78
ENDCHAR

STARTCHAR igrave
ENCODING 236
SWIDTH 281 0
DWIDTH 4 0
BBX 4 11 0 0
BITMAP
40
20
10
00
60
20
20
20
40
40
E0
ENDCHAR

STARTCHAR iacute
ENCODING 237
SWIDTH 281 0
DWIDTH 4 0
BBX 5 11 0 0
BITMAP
08
10
20
00
60
20
20
20
40
40
E0
ENDCHAR

STARTCHAR icircumflex
ENCODING 238
SWIDTH 281 0
DWIDTH 4 0
BBX 5 11 0 0
BITMAP
10
28
48
00
60
20
20
20
40
40
E0
ENDCHAR

STARTCHAR idieresis
ENCODING 239
SWIDTH 281 0
DWIDTH 4 0
BBX 4 10 0 0
BITMAP
50
50
00
60
20
20
20
40
40
E0
ENDCHAR

STARTCHAR eth
ENCODING 240
SWIDTH 635 0
DWIDTH 10 0
BBX 8 11 2 0
BITMAP
33
0C
34
02
3E
42
42
82
84
84
78
ENDCHAR

STARTCHAR ntilde
ENCODING 241
SWIDTH 552 0
DWIDTH 8 0
BBX 8 10 0 0
BITMAP
19
26
00
6E
31
21
21
42
42
E3
ENDCHAR

STARTCHAR ograve
ENCODING 242
SWIDTH 563 0
DWIDTH 8 0
BBX 7 11 1 0
BITMAP
20
10
08
00
3C
42
42
82
84
84
78
ENDCHAR

STARTCHAR oacute
ENCODING 243
SWIDTH 563 0
DWIDTH 8 0
BBX 7 11 1 0
BITMAP
04
08
10
00
3C
42
42
82
84
84
78
ENDCHAR

STARTCHAR ocircumflex
ENCODING 244
SWIDTH 563 0
DWIDTH 8 0
BBX 7 11 1 0
BITMAP
08
14
24
00
3C
42
42
82
84
84
78
ENDCHAR

STARTCHAR otilde
ENCODING 245
SWIDTH 563 0
DWIDTH 8 0
BBX 8 10 1 0
BITMAP
19
26
00
3C
42
42
82
84
84
78
ENDCHAR

STARTCHAR odieresis
ENCODING 246
SWIDTH 563 0
DWIDTH 8 0
BBX 7 10 1 0
BITMAP
12
12
00
3C
42
42
82
84
84
78
ENDCHAR

STARTCHAR divide
ENCODING 247
SWIDTH 668 0
DWIDTH 10 0
BBX 7 7 2 1
BITMAP
10
00
00
FE
00
00
10
ENDCHAR

STARTCHAR oslash
ENCODING 248
SWIDTH 563 0
DWIDTH 8 0
BBX 9 9 0 -1
BITMAP
0080
1F00
2300
2500
4900
5200
6200
7C00
8000
ENDCHAR

STARTCHAR ugrave
ENCODING 249
SWIDTH 552 0
DWIDTH 8 0
BBX 7 11 1 0
BITMAP
20
10
08
00
C6
42
42
84
84
8C
76
ENDCHAR

STARTCHAR uacute
ENCODING 250
SWIDTH 552 0
DWIDTH 8 0
BBX 7 11 1 0
BITMAP
04
08
10
00
C6
42
42
84
84
8C
76
ENDCHAR

STARTCHAR ucircumflex
ENCODING 251
SWIDTH 552 0
DWIDTH 8 0
BBX 7 11 1 0
BITMAP
08
14
24
00
C6
42
42
84
84
8C
76
ENDCHAR

STARTCHAR udieresis
ENCODING 252
SWIDTH 552 0
DWIDTH 8 0
BBX 7 10 1 0
BITMAP
24
24
00
C6
42
42
84
84
8C
76
ENDCHAR

STARTCHAR yacute
ENCODING 253
SWIDTH 510 0
DWIDTH 8 0
BBX 9 14 -1 -3
BITMAP
0100
0200
0400
0000
3B80
1100
1200
1200
1400
1800
1000
1000
2000
E000
ENDCHAR

STARTCHAR thorn
ENCODING 254
SWIDTH 604 0
DWIDTH 9 0
BBX 9 13 0 -3
BITMAP
1800
0800
0800
1700
1880
1080
1080
2080
3100
2E00
4000
4000
E000
ENDCHAR

STARTCHAR ydieresis
ENCODING 255
SWIDTH 510 0
DWIDTH 8 0
BBX 9 13 -1 -3
BITMAP
0900
0900
0000
3B80
1100
1200
1200
1400
1800
1000
1000
2000
E000
ENDCHAR
ENDFONT
